<?xml version="1.0" encoding="UTF-8"?>
<svg id="Layer_1" data-name="Layer 1" xmlns="http://www.w3.org/2000/svg" viewBox="0 0 113.39 80.47">
  <defs>
    <style>
      .cls-1 {
        fill: none;
      }

      .cls-2 {
        fill: #081726;
      }
    </style>
  </defs>
  <path class="cls-2" d="M92.3,27.57c-10.19-8.16-15.28-12.23-16.04-13.1-.5-.35-1.25-.88-2.13-1.55-1.16-.89-3.36-2.64-7.68-6.86,0,0-1.44-1.37-5.82-4.67-.41-.31-1.13-.84-2.16-.94-1.45-.14-2.61.68-3.46,1.31-3.85,2.8-7.42,5.77-9.29,7.15-.61.45-1.31.96-2.18,1.56-1.53,1.04-2.69,1.75-3.14,2.02-.78.48-2.56,1.69-6.1,4.09-7.11,4.83-7.31,5.02-8.27,5.41-.48.19-2.11.83-4.01,2-.74.45-1.33.87-1.59,1.06,0,0-1.3.96-2.6,2.15-4.23,3.85-8,8.37-12.15,12.31L.41,44.55c.67-.22,1.35-.64,1.97-.98,6.33-3.52,12.21-8.1,18.22-12.15,5.23-3.52,10.51-7,15.86-10.33l-2.09,7.48c.38.39,4.55-2.6,5.1-3.03,5.35-4.08,9.36-9.55,14.55-13.81.79-.65,1.61-1.3,2.47-1.85.3-.03,3.66,2.72,4.15,3.15.63.54,3.76,3.73,4.1,3.82.93.26,2.93-1.77,4.53-1.52.89.14,3.99,2.74,4.9,3.45,9.73,7.6,17.6,14.76,28.71,20.65,3.32,1.76,6.88,3.54,10.51,4.53-8.58-6.49-15.71-12.1-21.09-16.4Z"/>
  <path class="cls-2" d="M96.98,66.1l8.64-9.85c.37-.25.77-.33,1.21-.37.63-.06,5.1-.06,5.25.16.06.32-.11.54-.28.79-.72,1.02-2.46,2.51-3.38,3.52-1.49,1.63-2.96,3.28-4.38,4.96l8.62,14.38c-.01.09-.19.26-.28.31-.33.15-4.83.13-5.33,0s-.97-.65-1.27-1.04l-5.71-9.69c-.66.86-2.86,2.72-3.06,3.7-.23,1.15.25,6.45-.21,6.91-1.24.23-2.94.29-4.22.18-.24-.02-.65-.02-.8-.25l-.1-23.41c.08-.24.24-.34.48-.38.42-.08,4.33-.05,4.53.07.07.09.29.36.29.43v9.57Z"/>
  <path class="cls-2" d="M8.01,55.56c3.89-.36,9.45.77,10.68,5.06.16.55.63,2.13-.11,2.35-.35.1-3.56.09-3.97,0-.7-.16-.75-1.17-1.13-1.74-1.66-2.48-8.52-2.22-7.57,1.96.23.99,1.61,1.35,2.42,1.61,5.18,1.7,12.09,1.68,11.21,9.2-.9,7.75-14.14,8.28-18.18,2.95-.58-.76-2.27-4.16-.73-4.45.5-.09,3.52-.08,3.99.03.72.17.7,1.03.99,1.6,1.39,2.65,8.35,2.82,8.74-.42.24-1.98-1.24-2.33-2.76-2.83-4.11-1.35-10.54-1.48-11.05-7.09-.44-4.79,2.9-7.8,7.45-8.23Z"/>
  <path class="cls-2" d="M27.11,55.76c.25.05.72.47.65.78.19,4.39-.28,9.03-.01,13.4.19,3.04,1.08,5.48,4.53,5.68,3.39.2,5.03-1.75,5.26-4.96.33-4.44-.41-9.44-.01-13.83.14-1.48.83-1.08,1.8-1.07.62,0,2.97-.16,3.26.2.13.17.14.37.14.58-.43,5.08.62,11.16-.17,16.11-1.74,10.98-19.99,9.54-19.99-.7v-15.97l.22-.22c1.24.18,3.17-.24,4.32,0Z"/>
  <path class="cls-2" d="M49.99,55.92c.1.03.41.4.47.54l5.36,18.31c.22-.02.22-.22.28-.37,2.12-5.37,3.1-11.97,5.29-17.3.16-.39.67-1.18,1.12-1.18h4.17c.35.27.24.77.15,1.16l-7.16,22.05c-.2.63-.57.78-1.18.83-1.23.11-3.99.14-5.19,0-.41-.05-.69-.17-.91-.53-2.18-7.17-5.1-14.17-7.11-21.39-.09-.33-.71-2.13-.18-2.13h4.89Z"/>
  <path class="cls-2" d="M75.68,61.06c-.03-.11-.38-.3-.52-.32l-6.64-.07c-.26-.19-.26-3.98-.07-4.4.06-.13.13-.25.28-.3l19.27-.03c.57.03.6.31.65.79.06.66.1,2.87-.01,3.46-.04.21-.1.32-.29.43-1.28.73-5.56-.2-7.12.36l-.15.28-.14,18.28c-.15.21-.31.38-.58.43-.43.08-3.98.05-4.24-.07-.07-.03-.43-.4-.43-.43v-18.42Z"/>
  <path class="cls-2" d="M66.2,21.79l1.85-.05c.16-.1.4-.86.39-1.04,0-.22-.23-.35-.25-.55-.16-1.34,2.58-1.25,2.14.27-.14.47-.82.43-1.06.68-.13.13-.35.87-.29,1.02.06.13,1.57,1.02,1.72,1.01.81-.13,1.07-1.51,1.44-1.74,1-.64,1.83.57,1.36,1.36-.33.57-1.58.25-2.08,1.25l.67,1.86s1.05-.12,1.18-.17c.27-.09.35-.38.54-.47,1.4-.66,1.52,1.79.61,2.06-.81.24-.81-.51-1-.55-.32-.08-.84.06-1.2,0,.23,1.04-.91,2.69.58,3.09.24.07.83-.53,1.31.13.53.74-.36,2.07-1.31,1.6-.43-.21-.31-1.53-1.3-1.44l-1.28,1.46c.17,1.01,1.67.74,1.57,1.84-.09,1.01-1.8,1.15-1.86.15-.01-.22.12-.41.07-.64-.02-.1-.49-.81-.58-.87l-1.59.44c-.55.83.55,1.52.52,1.94-.08.97-2.4,1.04-1.96-.36.13-.42.9-.82.45-1.58-.14-.23-1.43-.54-1.64-.41-.04.02-.38.79-.39.83-.04.23.21.41.21.66.02,1.13-2.39,1.13-1.95-.36.2-.67.67-.44.91-.6.05-.03.46-.95.46-1.05l-1.17-1.49c-1.38-.19-.96,1.64-2.08,1.71-.83.05-1.37-1.88-.39-2.14.33-.09.57.1.81.08.13-.01.98-.45,1.03-.53l-.47-1.88c-.12-.06-1.15-.25-1.27-.23-.21.03-.34.41-.6.49-1.03.32-1.27-1.17-.92-1.89,1.29-.9,1.55,1.14,3.02.61l.75-2.2c-.49-.63-1.46-.38-1.94-.68-.88-.55-.11-2.15.96-1.83.42.12.75,1.7,1.61,1.7.29,0,1.53-.94,1.51-1.35-.06-1.16-.98-.95-1.12-1.63-.25-1.18,1.48-1.42,1.92-.47.19.42-.52,1.29.09,1.99Z"/>
  <path class="cls-2" d="M61.44,39.22c.45.03,1.56.8,1.91.71,1.01-.26-.11-2.17,1.61-1.85.65.12.85.98.52,1.49-.18.27-1.11.12-1.28.92-.06.31.67,1.47.91,1.49.31-.04.87-.05,1.13-.19.31-.16.19-.88,1-.67.68.18.78,1.64.15,1.83-.5.15-.74-.27-1.26-.28-1.53-.02-.57,1.25-.8,2.23.03.1.98.31,1.15.31.28,0,.45-.2.67-.22,1.12-.08.89,2.19-.29,2.02-.61-.09-.48-.79-.69-.98-.19-.17-.95-.26-1.19-.03-.06.06-.89,1.42-.89,1.51,0,.73,1.42.83,1.61,1.22.41.85-.51,1.92-1.31,1.31-.42-.32-.14-.87-.27-1.15-.07-.15-.66-.72-.84-.71l-1.41.78c.13.35.11.96.29,1.25.16.26.82.25.57,1.01-.16.47-2,.94-1.85-.25.07-.57.72-.89.13-1.79l-1.84-.14c-.46.61.03,1.42-.3,1.93-.5.79-1.97.28-1.71-.7.12-.45.68-.44.85-.64.06-.07.41-.88.4-.96l-1.47-1.38c-.14.22-.68.48-.77.61-.33.47.12,1.12-1.09.94-.51-.08-.59-.57-.53-1.04.12-.96.75-.5,1.29-.74,1.1-.48.14-1.59,0-2.37-.21.06-1.05.1-1.12.17-.07.06-.04.4-.22.56-.97.84-2.03-1.66-.85-2,.76-.22,1.12,1,2.17.38.02-.9,1.05-2.1-.16-2.46-.46-.14-.55.05-.88.03-1.3-.07-.72-2.34.49-1.79.48.22.34.7.47.9.03.04.88.44.93.44.17.02,1.18-.83,1.2-1.06.02-.21-.37-1.07-.51-1.21-.29-.28-.7-.1-.76-.83-.1-1.29,2.02-1.17,1.84.03-.03.19-.24.32-.22.52.01.17.38.99.51,1.07.48.05,1.92-.09,2.02-.58.19-.95-.49-1.05-.42-1.86.08-1.06,1.71-.79,1.86.29.11.85-.31.63-.49.93-.14.22-.12.71-.22.99Z"/>
  <path class="cls-2" d="M25.42,38.47c.13-.13.13-.5.32-.62,1-.62,1.71,1.53.64,1.66-.48.06-.87-.52-1.48-.13v1.61c.47.92,1.14.03,1.71.31.53.27.41,1.51-.38,1.62s-.99-1.56-1.76-.59c-.65.81-.19,1.59.79,1.62.48.51.14,1.46-.58,1.45-.91-.02-.43-1.35-1.31-1.7l-1.07.79c-.23.89.61.91.73,1.26.38,1.06-1.69,1.5-1.61.45.02-.28.31-.5.29-.86-.05-.94-1.01-.55-1.64-.78-.69.55-.05,1.34-.32,1.96s-1.3.32-1.33-.47c-.02-.49,1.3-1.18.85-1.87-.34-.1-.71-.54-1.07-.51-1.03.09-.65,1.3-1.09,1.52-1.07.53-1.58-1.36-.73-1.59.5-.14,1.12.04,1.29-.68l-.69-1.18c-.75-.16-1.18.66-1.78.62-.74-.05-.79-1.66.17-1.77.47-.05.91.54,1.46.36-.12-.64.75-2.06-.28-2.24-.22-.04-.48.42-1.02.16-.49-.24-.54-1.8.62-1.63.53.08.33.48.68.76.75.6,1.37-.26,1.73-.86-.17-1-1.35-.44-1.15-1.58.13-.78,1.44-.7,1.56-.12.06.28-.31,1.43.63,1.32.68-.08,1.47-.33,1.27-1.17-.04-.15-.35-.14-.42-.33-.29-.82.82-1.45,1.5-.78.64.63-.22.88-.34,1.26-.31,1.02.59.91,1.22,1.32,1.17-.29.6-2.14,1.96-1.54.47.37.55,1.2-.05,1.48-.37.17-1.05,0-.98.7.32.54,1.02,1.44,1.68.79Z"/>
  <path class="cls-2" d="M89.17,45.09c-.15.14-.48.15-.68.18-.13.6.42.92.81,1.28.19.03,1.28-1.62,1.62-.62.36,1.07-.57.86-1.27,1.07-.06.09.26,1.18.35,1.29.35.43.72-.15,1.12-.12.73.05.63,1.53-.37,1.25-.24-.07-.38-.52-.74-.41l-.49.96c-.07.8,1.9.36,1.14,1.53-.54.84-1.22-.9-1.52-.9l-.5.64c-.01.48.63.77.7,1.04.17.63-.95.89-1.11.23-.06-.24.23-.62-.09-.91-.3-.26-.95-.18-1.24.1-.1.44.48,1.44-.24,1.61-1.49.35.55-1.71-1.05-2.08-.78-.18-.67,1.55-1.44,1.17-1.06-.52.69-1.38.69-1.59l-.57-1.06c-.39-.25-1.86,1.42-1.79-.09.04-.93,1.13-.09,1.53-.59l-.17-1.33c-.44-.28-.83.23-1.19.12-.5-.15-.27-1.56.54-1.27.12.04.43.64.95.56l.42-1.06c-.14-.46-.87-.3-1.07-.67-.25-.47.47-1.3.95-.95.15.11.05,1.05.8,1.21,1.76-.24-.39-2.23,1.13-2.15,1.22.06-.33,1.23.51,1.66,1.5.77.77-1.02,1.81-1.08.58-.03.82.62.46.97Z"/>
  <path class="cls-2" d="M33.24,38.2c1.46.77,1.04-1.27,2.15-.5.38,1.09-1.44.51-.21,1.96.57.16.49-.33.72-.42.47-.18.67.19.64.63-.03.54-.79.33-1.16.36l-.08,1.02c.33.47.68-.08.98.12.58.39-.12,1.13-.59.84-.11-.07-.07-.54-.65-.41-.08.02-.44.71-.67.8.44.16,1.15,1.16.5,1.37-.74.23-.19-1.13-1.12-1.11-1.27.03-.31,1.06-.39,1.32-.28.41-.8.24-.99-.16l.27-.7c0-.39-.54-.64-.87-.44-.24.18,0,.8-.37.93-.48.17-1.25-.1-1-.71,1.14-.26,1.07-.72.28-1.42l-.73.54c-.53,0-.73-.52-.57-.99l1.09-.13c-.04-.31.12-1.06-.14-1.23-.1-.07-.39.12-.62.06-.51-.12-.34-.87-.02-.98.52-.18,1.15,1.09,1.57-.16.16-.47-1.22-.88-.52-1.37.92-.63.84.88,1.1.93.1.02.65-.18.72-.27.27-.39-.56-1.19.16-1.43,1.1-.37.28,1.3.5,1.55Z"/>
  <path class="cls-2" d="M50.06,47.29l.29,1,1.29-.28-.14.8-1.01-.08-.15,1.01,1.01.21.15.44c-.28.75-.83.27-1.09-.22-1.49.84-.08,1.14-.06,1.23.07.38-.23.9-.65.79-.33-.09-.05-1.77-1.46-.87l.07.93c-.1.37-.87.33-.86-.12,0-.19.79-1.25-.36-1.23-.41,0-.32.63-.64.8-.42.23-.78-.27-.63-.62.18-.41,1.23-.18.33-1.48l-.79.58c-.26-.04-.48-.24-.5-.51-.05-.74.55-.41.91-.53.3-.1.27-.83.38-1.13-.34.06-.61.27-.88-.07-.38-.47.7-1.56.75-.38.33.14.89-.19.98-.52.09-.35-1.3-1.14-.06-1.21,1.18-.07.14,1.03.71,1.13l.88-.25-.07-1,.47-.13.36.35-.27.7.64.49.61-.69c1.04.19.68,1.13-.23.84Z"/>
  <path class="cls-2" d="M72.51,45.99l.07-.87c1.63-.41.37.85.37.94,0,.05.66.7.72.73.42.22.51-.46.72-.59.56-.35.69.5.56.92l-.84.16.15.9.36.19c1.15-.79,1.2,1.11.17.93-.07-.01-.63-1.1-.93.1-.18.72.77.69.68,1.1-.04.19-.7.7-.86.31-.24-1.08-.47-.8-1.3-.42l-.07.26c.8.95-.86,1.01-.76.46.59-.74.21-.86-.51-1.11l-.45.87c-.28.36-.82.02-.73-.43.08-.41.64-.27.77-.64l-.41-.93h-.42c.14.56-.5.68-.87.33l.22-.79.88-.12.18-.8c-.05-.23-.49-.19-.67-.29-.5-.28-.26-.69.22-.78.52-.1.48.93,1.15.16.48-.56-.13-.86-.34-1.38.01-.17.51-.43.68-.44.87-.07-.07,1.06.37,1.25h.94Z"/>
  <path class="cls-2" d="M52.64,17.22l.3.99c-.44,0-.82.23-1.15.5-2.25,1.82.23,5.61,2.44,4.17,1.24-.81.85-1.37-.07-2.22l-.93.72-.58-.79,1.53-1.5,2.33,2.38c-.83,2.32-3.16,4.1-5.45,2.29-2.54-2.02-1.6-6.06,1.57-6.54Z"/>
  <path class="cls-2" d="M82.04,28.99c-1.21-2.59-3.93-1.53-4.42.88-.2.96.85,2.56,1.71,2.3.09-.03.73-.87.76-.99.12-.42-.47-.62-.81-.73l.65-.99,1.79,1.23c.12.4-1.6,2.34-1.96,2.76-3.21-.74-4.68-3.16-2.35-5.96,1.97-2.36,4.44-1.27,5.61,1.16l-.98.34Z"/>
  <path class="cls-2" d="M11.78,42.1v1.01c-2.28-.3-3.52,1.75-2.33,3.7.9,1.47,2.57,1.36,3.46,0l-.55-1.04-1.06.36-.52-.77,2.08-1.1,1.49,2.79c-1.4,2.27-4.83,2.9-6.19.19-1.38-2.75.59-5.57,3.63-5.14Z"/>
  <path class="cls-2" d="M82.73,41.82l-.92.28c-.19-.04-.81-1.7-2.03-1.7-1.07,0-2.76,1.89-2.66,2.92.05.53,1.35,1.84,1.87,1.6l.86-1.01-.85-.52.43-1,1.98,1.36-2.22,2.64c-2.55-1.17-4.57-2.59-2.41-5.43,2.01-2.65,4.82-2.21,5.96.85Z"/>
  <path class="cls-2" d="M39.11,29.46l.15.98c-4.75.19-2.08,7.42,1.28,3.95-.59-2.03-.98-.69-1.47-.79l-.67-.84,1.8-1.01c.48,0,1.56,2.25,1.76,2.78-1.25,1.83-3.84,2.96-5.58,1.03-2.22-2.45-.61-6.18,2.72-6.1Z"/>
  <path class="cls-2" d="M94.25,41.96l.62-.84,1.81,1.08c.06.2-1.29,2.45-1.5,2.64-.32.28-1.07-.1-1.46-.26-2.27-.93-3.12-2.38-1.94-4.73,1.48-2.93,4.41-2.43,6.04.03l-.77.79c-1.03-1.74-3.08-2.36-4.13-.24-.79,1.61-.35,2.71,1.37,3.24l.94-1.2-.99-.5Z"/>
  <path class="cls-2" d="M50.64,32.46c-1.89.31-2.62,2.13-1.5,3.73.73,1.04,1.68,1.4,2.78.64s.63-1.04-.06-1.93l-.84.57-.66-.64,1.53-1.5,2.21,2.36c-1.17,2.42-3.7,4.08-5.83,1.52-1.57-1.89-1.14-4.45,1.13-5.5.94-.43,1.15-.34,1.25.74Z"/>
  <path class="cls-2" d="M37.1,44.71l.15.98c-3.23.18-2.23,5.47.59,4.69.42-.11,1.18-.68,1.15-1.14,0-.18-.45-.95-.58-1.03-.35-.23-.7.59-1.01.65l-.58-.79,1.68-1.35c.4-.03,1.64,2.08,1.92,2.5-1.14,2.33-4.19,3.51-5.87.98-1.53-2.3-.23-5.29,2.55-5.5Z"/>
  <path class="cls-2" d="M85.47,38.8c-.22.06-.24-.06-.36-.14-1.39-.96-.26-1.37-.24-2.4,0-.22-1.6-1.42-1.81-1.46-.45-.09-.96.68-1.41.81l-.93-.9,5.54-3.52c.25,0,1.2.54,1.08.91l-1.87,6.71ZM85.18,35.05l.72-2.3-2.01,1.37,1.29.93Z"/>
  <path class="cls-2" d="M43.73,33.76l-2.13-6.29,1.05-1,5.68,3.48-.93.9-1.41-.8c-.14.02-1.56,1.15-1.61,1.27-.33.73,1.46,1.94-.64,2.44ZM45.03,29.3c-.33.09-1.8-1.24-1.87-1.15l.58,2.16c.13.12,1.51-.73,1.29-1.01Z"/>
  <path class="cls-2" d="M41.72,48.01l-2.42-6.58c0-.26.67-.89.91-.91.65-.07,4.92,2.81,5.82,3.24l-.95.77c-.33.07-.8-.65-1.25-.54-.11.03-1.47,1.2-1.55,1.34-.31.54.34,1.14.42,1.71l-.98.96ZM42.87,43.26l-2.16-1.3,1.08,2.44c.13-.29,1.28-.85,1.08-1.15Z"/>
  <path class="cls-2" d="M106.48,50.45l-.15.85c-3.2.18-4.96-2.55-3.16-5.39,1.5-2.37,4.41-1.72,5.73.44l-.77.79c-1.04-1.81-2.96-2.07-3.98-.1-1.12,2.15.24,3.24,2.33,3.41Z"/>
  <path class="cls-2" d="M57.4,13.46c-4.63,1.25.7,7.61,2.6,2.95l.88.32c-.06.73-.49,1.39-1.02,1.85-3.43,3.05-7.27-2.55-4.66-5.24.7-.73,2.31-1.56,2.21.12Z"/>
  <path class="cls-2" d="M55.81,28c-4.86.74-.45,7.69,2.02,3.32.17-.12.88.55.84.76-4.06,6.1-10.01-3.55-3.36-5.03.26.04.62.77.49.94Z"/>
  <path class="cls-2" d="M101.01,47.58l-.53.84c-1.45.17-3.19-1-3.36-2.5-.42-3.74,3.9-6.31,6.2-2.87.07.27-.42.84-.65.78-2.96-3.89-7.02,3.64-1.66,3.74Z"/>
  <path class="cls-2" d="M33.08,30.74l-.51,1.01c-.41-.08-1.46-1.17-1.8-.95l-2.66,4.55c-.19.24-.15.08-.29,0-.29-.18-.54-.55-.94-.58l2.86-4.56c.13-.52-1.13-.87-1.41-1.27l.64-.92c1.21,1.1,2.64,2.03,4.1,2.73Z"/>
  <path class="cls-2" d="M73.07,41.37c-.25.15-1.18-.49-1.12-.75l3.29-4.07-1.41-1.29.63-.91,4.1,3.23-.77.78-1.53-1.08-3.19,4.09Z"/>
  <path class="cls-2" d="M45.51,36.69c-.21.23-.37.55-.62.76l3.57,4.04-.77.91-3.67-3.82c-.37-.19-1.04.88-1.37,1.09l-.79-.79,3.67-3.67.79.79c-.18.31-.61.48-.81.7Z"/>
  <path class="cls-2" d="M6.01,44.56l.24.85-1.53.95,2.44,4.75-.92.63c-.19.02-.24-.11-.34-.24-.86-1.16-1.34-3.25-2.32-4.45l-1.64.81-.51-.8,4.07-2.41.52-.1Z"/>
  <path class="cls-2" d="M88.99,33.33l3.96,2.81c.33.14-.24,1.05-.37,1.08-.48-.12-1.29-1.26-1.79-.94l-2.95,4.39-.92-.91,3-4.22-1.56-1.42.64-.79Z"/>
  <path class="cls-2" d="M48.91,21.96l-.09.3-1.49,1.36,3.59,3.91-.8.91-3.51-3.81c-.38-.2-1.02.9-1.39,1.08l-.77-.64,3.67-3.67.79.58Z"/>
  <path class="cls-2" d="M32.22,48.01l-1.88-.37-1.29,4.98-1.14-.3,1.26-4.96-1.99-.5.28-.94,4.9,1.01c.33.2-.19.81-.15,1.08Z"/>
  <line class="cls-1" x1="85.9" y1="32.75" x2="85.18" y2="35.05"/>
  <line class="cls-1" x1="43.73" y1="30.3" x2="43.16" y2="28.15"/>
  <line class="cls-1" x1="41.79" y1="44.41" x2="40.71" y2="41.96"/>
  <g>
    <path class="cls-2" d="M40.78,2.36c-.16-.07-.38-.04-.48-.12-.25-.2-.67-.88-.98-1.2-.29-.3-.97-.92-1.37-1.02-.32-.08-.8.1-1.12.2-2.41.75-4.74,2.05-7.08,3l-3.16,1.61c-1.28-.17-2.54-.47-3.83-.65-1.62-.22-2.44-.45-4,.28-2.29,1.08-4.9,2.84-6.91,4.38-3.25,2.49-6.24,5.32-9.24,8.09-.01.34.29.58.35.91.09.43-.06,2.12-.05,2.72.01.65-.04,2.81.1,3.28.13.42.67,1.38.92,1.77.22.34.77.82.91,1.1.15.29-.14.71.22,1.3.97,1.57,2.31,1.87,3.99,1.23.51.83,1.01,1.68,1.75,2.32.84.72,2.2,1.34,3.31,1,2.78-.86,2.78-3.95,1.48-6.06l3.7-2.71c.65.71,1.73,1.27,2.69.91,2-.76,2.55-2.57,1.6-4.42l2.02-1.4.58.68s0,.01,0,.02c1.07,1,2.38,1.63,3.92,1.49,1.34-.23,2.76-1.23,3.22-2.68-.01,0-.03,0-.04,0-.02,0-.02-.09-.01-.21l-.02-.04.02.04c.01-.33.08-.96.07-1.08-.03-.9-.28-1.87-.69-2.67-.02-.06.08-.14.12-.18.7-.54,1.55-.97,2.24-1.54.98.76,1.99,1.47,3.3,1.38,2.33-.16,3.3-2.09,3.15-4.2-.02-.25-.19-.86-.15-1.02.03-.14.45-.48.58-.65.43-.54,1.01-2.58.82-3.21-.19-.64-1.3-2.36-1.92-2.63ZM4.75,24.72c-.03.27-.3.32-.51.43-.1-.03-.7-1.06-.7-1.21,0-.22.69-.66.87-.36.08.13.35.99.34,1.13ZM39.4,2.09c.05.25-.35.5-.56.39-.33-.16-.85-1.11-1.15-1.39.59-.57,1.61.49,1.71,1ZM38.38,2.81v.21c-.09.22-.37.19-.56.29-1.25.64-2.48,1.35-3.77,1.92-.18,0-.37-.23-.23-.38l4.14-2.17c.16-.09.35-.05.43.13ZM32.68,3.74c.08-.16,1.69-.8,1.99-.95.37-.18,2.33-1.25,2.55-1.2l.3.37c-.14.07-.26.16-.4.22-.55.25-1.12.47-1.66.73-.69.33-1.62.92-2.31,1.16-.28.1-.59-.11-.47-.34ZM11.03,11.7c-.07-.16-.22-.54-.08-.64.81-.57,1.63-1.44,2.46-1.95.39-.24.83-.02,1.24.12.44.15,3.46,1.47,3.57,1.69.06.12-.07.34-.21.35-.5-.16-1.22-.77-1.77-.64-.37.09-1.3.64-1.57.93-.46.51-.13,1.07.44,1.27h.95s-3.18,2.18-3.18,2.18c-.03-.04-.14-.08-.15-.1-.53-.99-1.3-2.19-1.72-3.2ZM13.41,16.32l1.37-.88.2.22-.07.24-1.33.81-.17-.4ZM4.28,20.24c-.06-.53-.02-2.82.09-3.32.07-.3.75-.91,1.02-1.09.11-.07.29-.23.38-.04l.76,3.74c-.02.23-.26.35-.43.49-.24.2-1.2.92-1.44.91-.33-.11-.35-.39-.38-.68ZM9.01,19.49c.24-.13.32.03.4.25,0,.07-1.02.89-1.11.93-.11.05-.28,0-.33-.1-.05-.11-.01-.2.06-.29.1-.12.84-.71.98-.79ZM14.02,30.12c-.27,1.6-1.9,1.24-2.8.39-.88-.82-2.26-3.57-.78-4.38.68-.37,1.6.14,2.11.6.89.81,1.67,2.14,1.47,3.38ZM8.71,27.11c-.33-1.3.42-2.63,1.82-2.8l-.63.35c-.53.37-.85.83-1.05,1.44l-.13,1.02ZM13.57,24.57c-1.69-1.48-3.91-2.99-5.73-.73-.95,1.17-.46,2.92.14,4.14-.05.06-.23-.14-.24-.15-.18-.33-.42-.71-.56-1.05-.56-1.28-.58-2.64.43-3.69,2.23-2.29,4.48-.36,6.1,1.51-.01.13-.1,0-.14-.04ZM7.58,18.92c-.19-.04-.22-.2-.28-.35-.26-.65-.48-1.93-.62-2.66-.04-.2-.22-.91-.17-1.03,1.02-.83,2.01-1.98,3.07-2.74.16-.11.37-.31.52-.1.44.93,1.01,1.87,1.43,2.8.08.17.34.8.3.91l-4.25,3.17ZM22.84,17.73c0,.05-.57.46-.69.54-1.07.75-2.2,1.42-3.28,2.16-1.37.95-2.79,2.11-4.19,2.97-.25.15-.69.47-.71-.01l8.6-5.97c.11-.04.27.21.27.3ZM17,8.95c-.59-.24-1.2-.47-1.82-.66-.18-.06-.22-.23-.12-.39.68-.49,1.42-.89,2.14-1.32.84-.5,2.65-1.75,3.57-1.77.77-.02,3.42.52,4.2.77.08.03.16-.02.2.12-.83.45-1.64.94-2.42,1.47-1.02.7-1.99,1.65-2.97,2.31-.16.11-.41.26-.6.32-.34.09-1.76-.66-2.17-.83ZM30.25,18.74c-1.13,1.47-3.16.22-3.91-1.02-.58-.95-.97-3.06.04-3.85,2.41-1.89,5.43,2.83,3.87,4.87ZM24.37,15.1c-.29-1.74.84-3.27,2.58-3.61.07.1-.11.14-.18.18-.43.19-.64.26-1.02.57-.9.73-1.26,1.74-1.37,2.86ZM29.07,10.34c-1.59-.97-2.86-1.09-4.47-.05-2.58,1.68-1.97,4.58-.88,6.98l-.4-.46c-1.74-2.61-1.73-5.6,1.16-7.33,2.84-1.7,5.25.52,6.96,2.67l-2.37-1.82ZM33.96,9.75l-1.15.71c-.09-.02.16-.88.21-.94.11-.14,1.09-.78,1.18-.76.12.03-.18.88-.24.98ZM32.78,5.42c.03.16-.12.44-.22.55-.62.69-4.03,1.87-4.94,1.62-.77-.21-.51-1.15.02-1.54.68-.5,2.62-1.53,3.42-1.87.41-.17.56-.16.89.14.17.16.8.91.84,1.1ZM40.91,5.53l-4.63,2.58-.74,1.35c-.07-.02.03-.49.04-.58.17-.79.17-.98.89-1.43,1.16-.74,2.55-1.32,3.76-2.02.26-.15.48-.41.79-.51.17.23.1.45-.11.61Z"/>
    <path class="cls-2" d="M28.25,17.1c-.81-.24-.77-1.59.07-1.37.88.23.75,1.61-.07,1.37Z"/>
    <path class="cls-2" d="M26.76,14.21c.13-.27.89-.5,1.09-.3.12.12.11,1.11.05,1.18-.15.16-.42-.1-.55-.2-.15-.12-.59-.51-.58-.68Z"/>
    <path class="cls-2" d="M26.22,15.21c.78.38,1.74,1.05.26,1.36-.51.11-.37-1.07-.26-1.36Z"/>
    <path class="cls-2" d="M29.82,18.5c.02-.12-.74-.82-.92-.9-.38-.03-.18,1.08-.16,1.32.4-.05.83-.06,1.09-.42Z"/>
    <path class="cls-2" d="M28.84,14.27c.39.32.72.7.94,1.16l-.82.25c-.17-.08-.31-.23-.35-.41-.03-.12.08-1.01.22-.99Z"/>
    <path class="cls-2" d="M27.79,18.57c.35-1.11.24-1.75-1-.89.02.23.86.96,1,.89Z"/>
    <path class="cls-2" d="M30.17,16.46c-.08-.07-.73.08-.81.16-.23.24.64.93.86,1.03.15-.38.17-.84-.05-1.19Z"/>
    <path class="cls-2" d="M12.49,29.02c-.28.79-1.4-.54-.99-.94.38-.37,1.16.48.99.94Z"/>
    <path class="cls-2" d="M10.06,27.41c.08-.17.82.44.9.52.51.61-.55.62-.63.55-.25-.23-.15-.77-.27-1.07Z"/>
    <path class="cls-2" d="M10.57,26.51c.1-.09.74-.2.85-.09.19.18.16.84.08,1.09-.1.05-.61-.46-.7-.57-.08-.09-.35-.33-.23-.43Z"/>
    <path class="cls-2" d="M13.38,30.63c-.03.1-.75.21-.89.11-.1-.1-.16-1.05-.08-1.09.26,0,1.01.84.97.98Z"/>
    <path class="cls-2" d="M10.78,29.49c.97-.72,1.09.1.84.89-.14.07-.81-.7-.84-.89Z"/>
    <path class="cls-2" d="M12.33,26.91l.88,1.04c-.89.3-1.13,0-.97-.88.01-.07-.06-.11.1-.15Z"/>
    <path class="cls-2" d="M13.7,29.9c-.09-.18-1.02-.72-.77-.94.81-.44.98.29.77.94Z"/>
  </g>
</svg>